<svg xmlns="http://www.w3.org/2000/svg" xmlns:xlink="http://www.w3.org/1999/xlink" width="500" zoomAndPan="magnify" viewBox="0 0 375 374.999991" height="500" preserveAspectRatio="xMidYMid meet" version="1.0"><defs><clipPath id="aa148082ce"><path d="M 0 128.671875 L 375 128.671875 L 375 246.421875 L 0 246.421875 Z M 0 128.671875 " clip-rule="nonzero"/></clipPath></defs><path fill="#ffffff" d="M 354.976562 178.957031 L 359.886719 178.957031 C 355.316406 177.46875 349.324219 175.832031 342.066406 174.097656 L 335.589844 174.097656 C 343.238281 175.804688 349.730469 177.445312 354.976562 178.957031 " fill-opacity="1" fill-rule="nonzero"/><path fill="#ffffff" d="M 130.226562 161.203125 C 133.800781 161.203125 240.957031 161.203125 240.957031 161.203125 L 262.410156 161.203125 C 287.675781 164.800781 309.285156 168.574219 326.414062 172.125 L 275.34375 172.125 C 266.722656 169.066406 257.175781 165.980469 247.5625 163.125 C 220.722656 162.671875 133.597656 161.203125 130.226562 161.203125 C 130.164062 161.203125 130.117188 161.203125 130.125 161.203125 C 130.117188 161.203125 130.164062 161.203125 130.226562 161.203125 Z M 126.164062 172.972656 L 139.050781 165.996094 L 128.492188 172.972656 L 246.503906 172.972656 L 235.945312 165.996094 L 248.832031 172.972656 L 337.257812 172.972656 C 318.808594 168.78125 293.339844 164.113281 262.410156 159.707031 L 112.589844 159.707031 C 81.660156 164.113281 56.191406 168.78125 37.746094 172.972656 L 126.164062 172.972656 " fill-opacity="1" fill-rule="nonzero"/><path fill="#ffffff" d="M 358.714844 180.074219 C 360.570312 180.664062 362.226562 181.222656 363.65625 181.757812 L 367.242188 181.757812 C 366.144531 181.230469 364.769531 180.667969 363.15625 180.074219 L 358.714844 180.074219 " fill-opacity="1" fill-rule="nonzero"/><path fill="#ffffff" d="M 299.214844 181.757812 C 298.089844 181.210938 296.882812 180.652344 295.601562 180.074219 L 11.84375 180.074219 C 10.222656 180.667969 8.847656 181.230469 7.746094 181.757812 L 299.214844 181.757812 " fill-opacity="1" fill-rule="nonzero"/><path fill="#ffffff" d="M 293.042969 178.957031 C 289.390625 177.390625 285.269531 175.761719 280.785156 174.097656 L 32.925781 174.097656 C 25.667969 175.832031 19.683594 177.46875 15.105469 178.957031 L 293.042969 178.957031 " fill-opacity="1" fill-rule="nonzero"/><path fill="#ffffff" d="M 239.492188 145.441406 L 219.496094 145.441406 C 214.722656 141.597656 208.636719 137.839844 201.074219 135.28125 C 217.449219 136.804688 230.105469 140.949219 239.492188 145.441406 Z M 244.464844 146.503906 C 232.640625 139.917969 214.0625 133.164062 187.5 133.164062 C 160.847656 133.164062 142.265625 139.917969 130.464844 146.503906 L 244.464844 146.503906 " fill-opacity="1" fill-rule="nonzero"/><path fill="#ffffff" d="M 229.179688 155.21875 C 228.773438 154.703125 228.332031 154.15625 227.847656 153.59375 L 119.835938 153.59375 C 119.117188 154.171875 118.472656 154.714844 117.894531 155.21875 L 229.179688 155.21875 " fill-opacity="1" fill-rule="nonzero"/><path fill="#ffffff" d="M 226.882812 152.484375 C 225.515625 150.9375 223.90625 149.292969 222.042969 147.613281 L 128.535156 147.613281 C 125.664062 149.316406 123.242188 150.976562 121.265625 152.484375 L 226.882812 152.484375 " fill-opacity="1" fill-rule="nonzero"/><path fill="#ffffff" d="M 255.125 153.59375 L 253.171875 153.59375 C 253.929688 154.15625 254.636719 154.703125 255.277344 155.21875 L 257.078125 155.21875 C 256.492188 154.710938 255.851562 154.171875 255.125 153.59375 " fill-opacity="1" fill-rule="nonzero"/><path fill="#ffffff" d="M 251.640625 152.484375 L 253.699219 152.484375 C 251.703125 150.976562 249.28125 149.316406 246.398438 147.613281 L 243.757812 147.613281 C 246.804688 149.277344 249.433594 150.9375 251.640625 152.484375 " fill-opacity="1" fill-rule="nonzero"/><g clip-path="url(#aa148082ce)"><path fill="#1b1b1b" d="M 69.46875 218.394531 Z M 112.421875 157.460938 Z M 244.464844 146.503906 L 130.464844 146.503906 C 142.265625 139.917969 160.847656 133.164062 187.5 133.164062 C 214.0625 133.164062 232.640625 139.917969 244.464844 146.503906 Z M 227.847656 153.59375 C 228.332031 154.15625 228.773438 154.703125 229.179688 155.21875 L 117.894531 155.21875 C 118.472656 154.714844 119.117188 154.171875 119.835938 153.59375 Z M 255.277344 155.21875 C 254.636719 154.703125 253.929688 154.15625 253.171875 153.59375 L 255.125 153.59375 C 255.851562 154.171875 256.492188 154.710938 257.078125 155.21875 Z M 253.699219 152.484375 L 251.640625 152.484375 C 249.433594 150.9375 246.804688 149.277344 243.757812 147.613281 L 246.398438 147.613281 C 249.28125 149.316406 251.703125 150.976562 253.699219 152.484375 Z M 128.535156 147.613281 L 222.042969 147.613281 C 223.90625 149.292969 225.515625 150.9375 226.882812 152.484375 L 121.265625 152.484375 C 123.242188 150.976562 125.664062 149.316406 128.535156 147.613281 Z M 363.65625 181.757812 C 362.226562 181.222656 360.570312 180.664062 358.714844 180.074219 L 363.15625 180.074219 C 364.769531 180.667969 366.144531 181.230469 367.242188 181.757812 Z M 359.886719 178.957031 L 354.976562 178.957031 C 349.730469 177.445312 343.238281 175.804688 335.589844 174.097656 L 342.066406 174.097656 C 349.324219 175.832031 355.316406 177.46875 359.886719 178.957031 Z M 32.925781 174.097656 L 280.785156 174.097656 C 285.269531 175.761719 289.390625 177.390625 293.042969 178.957031 L 15.105469 178.957031 C 19.683594 177.46875 25.667969 175.832031 32.925781 174.097656 Z M 11.84375 180.074219 L 295.601562 180.074219 C 296.882812 180.652344 298.089844 181.210938 299.214844 181.757812 L 7.746094 181.757812 C 8.847656 181.230469 10.222656 180.667969 11.84375 180.074219 Z M 134.761719 240.632812 L 152.339844 240.484375 L 187.5 240.359375 L 222.652344 240.476562 L 240.230469 240.625 L 257.8125 240.878906 L 240.230469 241.140625 L 222.652344 241.289062 L 187.5 241.40625 L 152.339844 241.285156 L 134.761719 241.140625 L 117.179688 240.878906 Z M 125.988281 228.042969 L 146.488281 227.898438 L 187.5 227.777344 L 228.503906 227.894531 L 249.003906 228.042969 L 269.507812 228.296875 L 249.003906 228.554688 L 228.503906 228.699219 L 187.5 228.824219 L 146.488281 228.699219 L 125.988281 228.550781 L 105.484375 228.296875 Z M 111.976562 224.667969 L 137.152344 224.480469 L 187.5 224.324219 L 237.839844 224.476562 L 263.015625 224.667969 L 288.1875 224.996094 L 263.015625 225.324219 L 237.839844 225.515625 L 187.5 225.667969 L 137.152344 225.511719 L 111.976562 225.324219 L 86.804688 224.996094 Z M 65.347656 214.183594 C 64.890625 213.863281 64.457031 213.523438 64.023438 213.171875 C 68.144531 215.886719 71.589844 216.171875 71.84375 213.6875 C 72.078125 211.347656 69.40625 207.371094 65.683594 204.324219 C 65.886719 204.464844 66.09375 204.582031 66.304688 204.730469 C 70.710938 207.847656 74.0625 212.496094 73.796875 215.109375 C 73.535156 217.71875 69.746094 217.304688 65.347656 214.183594 Z M 320.28125 191.285156 L 276.015625 191.492188 L 187.5 191.664062 L 98.976562 191.492188 L 54.714844 191.28125 L 10.453125 190.917969 L 54.714844 190.554688 L 98.976562 190.347656 L 187.5 190.171875 L 276.015625 190.339844 L 320.28125 190.550781 L 364.539062 190.917969 Z M 301.832031 214.789062 C 303.167969 215.53125 305.929688 214.753906 309.015625 212.5625 C 313.203125 209.601562 316.382812 205.1875 316.132812 202.707031 C 316.601562 202.964844 316.914062 203.40625 316.976562 204.054688 C 317.226562 206.539062 314.042969 210.949219 309.855469 213.914062 C 305.679688 216.878906 302.082031 217.269531 301.832031 214.789062 Z M 134.34375 214.472656 C 134 214.148438 133.71875 213.800781 133.441406 213.453125 C 136.894531 216.269531 141.847656 216.546875 144.84375 213.949219 C 147.703125 211.46875 147.769531 207.257812 145.230469 204.046875 C 145.421875 204.203125 145.632812 204.34375 145.820312 204.519531 C 149.28125 207.804688 149.503906 212.695312 146.335938 215.445312 C 143.164062 218.191406 137.792969 217.757812 134.34375 214.472656 Z M 225.695312 214.472656 C 225.351562 214.132812 225.058594 213.773438 224.792969 213.402344 C 228.171875 216.265625 233.496094 216.5625 237.035156 213.949219 C 240.375 211.480469 240.964844 207.300781 238.65625 204.089844 C 238.832031 204.238281 239.023438 204.359375 239.183594 204.519531 C 242.511719 207.804688 242.195312 212.695312 238.464844 215.445312 C 234.742188 218.191406 229.027344 217.757812 225.695312 214.472656 Z M 73.65625 197.117188 L 35.707031 196.902344 L 73.65625 196.683594 L 111.597656 196.601562 L 187.5 196.453125 L 263.394531 196.601562 L 301.34375 196.679688 L 339.285156 196.902344 L 301.34375 197.117188 L 284.261719 197.15625 L 275.558594 213.039062 L 283.019531 197.15625 L 263.394531 197.195312 L 188.039062 197.34375 L 187.5 213.039062 L 186.953125 197.34375 L 111.597656 197.195312 L 91.976562 197.15625 L 99.441406 213.039062 L 90.734375 197.15625 L 90.738281 197.152344 Z M 369.734375 187.738281 L 5.261719 187.738281 C 5.054688 187.246094 4.878906 186.75 4.757812 186.246094 L 370.234375 186.246094 C 370.113281 186.75 369.9375 187.246094 369.734375 187.738281 Z M 112.589844 159.707031 L 262.410156 159.707031 C 293.339844 164.113281 318.808594 168.78125 337.257812 172.972656 L 248.832031 172.972656 L 235.945312 165.996094 L 246.503906 172.972656 L 128.492188 172.972656 L 139.050781 165.996094 L 126.164062 172.972656 L 37.746094 172.972656 C 56.191406 168.78125 81.660156 164.113281 112.589844 159.707031 Z M 318.089844 164.464844 C 293.453125 159.742188 268.527344 156.058594 263.714844 155.359375 C 259.8125 151.039062 237.207031 128.679688 187.5 128.679688 C 137.789062 128.679688 115.179688 151.039062 111.277344 155.359375 C 106.46875 156.058594 81.546875 159.742188 56.914062 164.464844 C 0 175.371094 0 180.984375 0 184 C 0 194.363281 11.816406 203.691406 35.125 211.726562 C 50.257812 216.945312 65.574219 219.945312 68.558594 220.503906 C 72.792969 223.601562 104.769531 246.429688 125.867188 246.429688 L 249.125 246.429688 C 270.222656 246.429688 302.199219 223.601562 306.4375 220.503906 C 309.425781 219.945312 324.734375 216.945312 339.875 211.726562 C 363.183594 203.691406 375 194.363281 375 184 C 375 180.984375 375 175.371094 318.089844 164.464844 " fill-opacity="1" fill-rule="nonzero"/></g><path fill="#ffffff" d="M 5.261719 187.738281 L 369.734375 187.738281 C 369.9375 187.246094 370.113281 186.75 370.234375 186.246094 L 4.757812 186.246094 C 4.878906 186.75 5.054688 187.246094 5.261719 187.738281 " fill-opacity="1" fill-rule="nonzero"/><path fill="#1b1b1b" d="M 239.492188 145.441406 C 230.105469 140.949219 217.449219 136.804688 201.074219 135.28125 C 208.636719 137.839844 214.722656 141.597656 219.496094 145.441406 L 239.492188 145.441406 " fill-opacity="1" fill-rule="nonzero"/><path fill="#1b1b1b" d="M 275.34375 172.125 L 326.414062 172.125 C 309.285156 168.574219 287.675781 164.800781 262.410156 161.203125 L 240.957031 161.203125 C 240.957031 161.203125 133.800781 161.203125 130.226562 161.203125 C 133.597656 161.203125 220.722656 162.671875 247.5625 163.125 C 257.175781 165.980469 266.722656 169.066406 275.34375 172.125 " fill-opacity="1" fill-rule="nonzero"/><path fill="#ffffff" d="M 276.015625 190.339844 L 187.5 190.171875 L 98.976562 190.347656 L 54.714844 190.554688 L 10.453125 190.917969 L 54.714844 191.28125 L 98.976562 191.492188 L 187.5 191.664062 L 276.015625 191.492188 L 320.28125 191.285156 L 364.539062 190.917969 L 320.28125 190.550781 L 276.015625 190.339844 " fill-opacity="1" fill-rule="nonzero"/><path fill="#ffffff" d="M 137.152344 225.511719 L 187.5 225.667969 L 237.839844 225.515625 L 263.015625 225.324219 L 288.1875 224.996094 L 263.015625 224.667969 L 237.839844 224.476562 L 187.5 224.324219 L 137.152344 224.480469 L 111.976562 224.667969 L 86.804688 224.996094 L 111.976562 225.324219 L 137.152344 225.511719 " fill-opacity="1" fill-rule="nonzero"/><path fill="#ffffff" d="M 146.488281 228.699219 L 187.5 228.824219 L 228.503906 228.699219 L 249.003906 228.554688 L 269.507812 228.296875 L 249.003906 228.042969 L 228.503906 227.894531 L 187.5 227.777344 L 146.488281 227.898438 L 125.988281 228.042969 L 105.484375 228.296875 L 125.988281 228.550781 L 146.488281 228.699219 " fill-opacity="1" fill-rule="nonzero"/><path fill="#ffffff" d="M 134.761719 241.140625 L 152.339844 241.285156 L 187.5 241.40625 L 222.652344 241.289062 L 240.230469 241.140625 L 257.8125 240.878906 L 240.230469 240.625 L 222.652344 240.476562 L 187.5 240.359375 L 152.339844 240.484375 L 134.761719 240.632812 L 117.179688 240.878906 L 134.761719 241.140625 " fill-opacity="1" fill-rule="nonzero"/><path fill="#ffffff" d="M 91.234375 196.902344 Z M 187.5 196.902344 Z M 283.757812 196.902344 Z M 99.441406 213.039062 L 91.976562 197.15625 L 111.597656 197.195312 L 186.953125 197.34375 L 187.5 213.039062 L 188.039062 197.34375 L 263.394531 197.195312 L 283.019531 197.15625 L 275.558594 213.039062 L 284.261719 197.15625 L 301.34375 197.117188 L 339.285156 196.902344 L 301.34375 196.679688 L 263.394531 196.601562 L 187.5 196.453125 L 111.597656 196.601562 L 73.65625 196.683594 L 35.707031 196.902344 L 73.65625 197.117188 L 90.738281 197.152344 L 90.734375 197.15625 L 99.441406 213.039062 " fill-opacity="1" fill-rule="nonzero"/><path fill="#ffffff" d="M 146.335938 215.445312 C 149.503906 212.695312 149.28125 207.804688 145.820312 204.519531 C 145.632812 204.34375 145.421875 204.203125 145.230469 204.046875 C 147.769531 207.257812 147.703125 211.46875 144.84375 213.949219 C 141.847656 216.546875 136.894531 216.269531 133.441406 213.453125 C 133.71875 213.800781 134 214.148438 134.34375 214.472656 C 137.792969 217.757812 143.164062 218.191406 146.335938 215.445312 " fill-opacity="1" fill-rule="nonzero"/><path fill="#ffffff" d="M 73.796875 215.109375 C 74.0625 212.496094 70.710938 207.847656 66.304688 204.730469 C 66.09375 204.582031 65.886719 204.464844 65.683594 204.324219 C 69.40625 207.371094 72.078125 211.347656 71.84375 213.6875 C 71.589844 216.171875 68.144531 215.886719 64.023438 213.171875 C 64.457031 213.523438 64.890625 213.863281 65.347656 214.183594 C 69.746094 217.304688 73.535156 217.71875 73.796875 215.109375 " fill-opacity="1" fill-rule="nonzero"/><path fill="#ffffff" d="M 309.855469 213.914062 C 314.042969 210.949219 317.226562 206.539062 316.976562 204.054688 C 316.914062 203.40625 316.601562 202.964844 316.132812 202.707031 C 316.382812 205.1875 313.203125 209.601562 309.015625 212.5625 C 305.929688 214.753906 303.167969 215.53125 301.832031 214.789062 C 302.082031 217.269531 305.679688 216.878906 309.855469 213.914062 " fill-opacity="1" fill-rule="nonzero"/><path fill="#ffffff" d="M 238.464844 215.445312 C 242.195312 212.695312 242.511719 207.804688 239.183594 204.519531 C 239.023438 204.359375 238.832031 204.238281 238.65625 204.089844 C 240.964844 207.300781 240.375 211.480469 237.035156 213.949219 C 233.496094 216.5625 228.171875 216.265625 224.792969 213.402344 C 225.058594 213.773438 225.351562 214.132812 225.695312 214.472656 C 229.027344 217.757812 234.742188 218.191406 238.464844 215.445312 " fill-opacity="1" fill-rule="nonzero"/></svg>