<svg xmlns="http://www.w3.org/2000/svg" xmlns:xlink="http://www.w3.org/1999/xlink" width="500" zoomAndPan="magnify" viewBox="0 0 375 374.999991" height="500" preserveAspectRatio="xMidYMid meet" version="1.0"><path fill="#34495e" d="M 199.960938 265.625 L 118.710938 265.625 C 118.09375 265.625 117.484375 265.6875 116.882812 265.804688 C 116.277344 265.925781 115.691406 266.105469 115.125 266.339844 C 114.554688 266.578125 114.015625 266.867188 113.503906 267.207031 C 112.992188 267.550781 112.519531 267.9375 112.085938 268.375 C 111.648438 268.808594 111.261719 269.28125 110.917969 269.792969 C 110.578125 270.304688 110.289062 270.84375 110.050781 271.414062 C 109.816406 271.980469 109.636719 272.566406 109.515625 273.171875 C 109.398438 273.773438 109.335938 274.382812 109.335938 275 L 109.335938 325 C 109.335938 325.617188 109.398438 326.226562 109.515625 326.828125 C 109.636719 327.433594 109.816406 328.019531 110.050781 328.585938 C 110.289062 329.15625 110.578125 329.695312 110.917969 330.207031 C 111.261719 330.71875 111.648438 331.191406 112.085938 331.625 C 112.519531 332.0625 112.992188 332.449219 113.503906 332.792969 C 114.015625 333.132812 114.554688 333.421875 115.125 333.660156 C 115.691406 333.894531 116.277344 334.074219 116.882812 334.195312 C 117.484375 334.3125 118.09375 334.375 118.710938 334.375 L 199.960938 334.375 C 200.578125 334.375 201.1875 334.3125 201.789062 334.195312 C 202.394531 334.074219 202.980469 333.894531 203.546875 333.660156 C 204.117188 333.421875 204.65625 333.132812 205.167969 332.792969 C 205.679688 332.449219 206.152344 332.0625 206.585938 331.625 C 207.023438 331.191406 207.410156 330.71875 207.753906 330.207031 C 208.09375 329.695312 208.382812 329.15625 208.621094 328.585938 C 208.855469 328.019531 209.035156 327.433594 209.15625 326.828125 C 209.273438 326.226562 209.335938 325.617188 209.335938 325 L 209.335938 275 C 209.335938 274.382812 209.273438 273.773438 209.15625 273.171875 C 209.035156 272.566406 208.855469 271.980469 208.621094 271.414062 C 208.382812 270.84375 208.09375 270.304688 207.753906 269.792969 C 207.410156 269.28125 207.023438 268.808594 206.585938 268.375 C 206.152344 267.9375 205.679688 267.550781 205.167969 267.207031 C 204.65625 266.867188 204.117188 266.578125 203.546875 266.339844 C 202.980469 266.105469 202.394531 265.925781 201.789062 265.804688 C 201.1875 265.6875 200.578125 265.625 199.960938 265.625 Z M 149.960938 278.125 C 150.578125 278.125 151.1875 278.183594 151.789062 278.304688 C 152.394531 278.425781 152.980469 278.601562 153.546875 278.839844 C 154.117188 279.074219 154.65625 279.363281 155.167969 279.703125 C 155.679688 280.046875 156.15625 280.433594 156.589844 280.871094 C 157.023438 281.304688 157.414062 281.78125 157.757812 282.292969 C 158.097656 282.804688 158.386719 283.34375 158.621094 283.914062 C 158.859375 284.480469 159.035156 285.066406 159.15625 285.671875 C 159.277344 286.273438 159.335938 286.882812 159.335938 287.5 C 159.335938 288.117188 159.277344 288.726562 159.15625 289.328125 C 159.035156 289.933594 158.859375 290.519531 158.621094 291.085938 C 158.386719 291.65625 158.097656 292.195312 157.757812 292.707031 C 157.414062 293.21875 157.023438 293.695312 156.589844 294.128906 C 156.15625 294.5625 155.679688 294.953125 155.167969 295.296875 C 154.65625 295.636719 154.117188 295.925781 153.546875 296.160156 C 152.980469 296.398438 152.394531 296.574219 151.789062 296.695312 C 151.1875 296.816406 150.578125 296.875 149.960938 296.875 C 149.34375 296.875 148.734375 296.816406 148.132812 296.695312 C 147.527344 296.574219 146.941406 296.398438 146.375 296.160156 C 145.804688 295.925781 145.265625 295.636719 144.753906 295.296875 C 144.242188 294.953125 143.765625 294.5625 143.332031 294.128906 C 142.898438 293.695312 142.507812 293.21875 142.164062 292.707031 C 141.824219 292.195312 141.535156 291.65625 141.300781 291.085938 C 141.0625 290.519531 140.886719 289.933594 140.765625 289.328125 C 140.644531 288.726562 140.585938 288.117188 140.585938 287.5 C 140.585938 286.882812 140.648438 286.273438 140.765625 285.671875 C 140.886719 285.066406 141.066406 284.480469 141.300781 283.914062 C 141.539062 283.34375 141.828125 282.804688 142.167969 282.292969 C 142.511719 281.78125 142.898438 281.308594 143.335938 280.875 C 143.769531 280.4375 144.242188 280.050781 144.753906 279.707031 C 145.265625 279.367188 145.804688 279.078125 146.375 278.839844 C 146.941406 278.605469 147.527344 278.425781 148.132812 278.304688 C 148.734375 278.1875 149.34375 278.125 149.960938 278.125 Z M 184.335938 325 C 184.335938 325.414062 184.257812 325.8125 184.097656 326.195312 C 183.941406 326.578125 183.714844 326.917969 183.421875 327.210938 C 183.128906 327.503906 182.789062 327.726562 182.40625 327.886719 C 182.023438 328.046875 181.625 328.125 181.210938 328.125 L 118.710938 328.125 C 118.296875 328.125 117.898438 328.046875 117.515625 327.886719 C 117.132812 327.726562 116.792969 327.503906 116.5 327.210938 C 116.207031 326.917969 115.980469 326.578125 115.824219 326.195312 C 115.664062 325.8125 115.585938 325.414062 115.585938 325 L 115.585938 275 C 115.585938 274.585938 115.664062 274.1875 115.824219 273.804688 C 115.980469 273.421875 116.207031 273.082031 116.5 272.789062 C 116.792969 272.496094 117.132812 272.269531 117.515625 272.113281 C 117.898438 271.953125 118.296875 271.875 118.710938 271.875 L 128.085938 271.875 L 128.085938 293.75 C 128.085938 294.777344 128.1875 295.792969 128.390625 296.796875 C 128.589844 297.804688 128.886719 298.78125 129.28125 299.726562 C 129.671875 300.675781 130.152344 301.574219 130.722656 302.425781 C 131.292969 303.28125 131.941406 304.070312 132.667969 304.792969 C 133.390625 305.519531 134.179688 306.167969 135.035156 306.738281 C 135.886719 307.308594 136.785156 307.789062 137.734375 308.179688 C 138.679688 308.574219 139.65625 308.871094 140.664062 309.070312 C 141.667969 309.273438 142.683594 309.375 143.710938 309.375 L 156.210938 309.375 C 157.238281 309.375 158.253906 309.273438 159.257812 309.070312 C 160.265625 308.871094 161.242188 308.574219 162.1875 308.179688 C 163.136719 307.789062 164.035156 307.308594 164.886719 306.738281 C 165.742188 306.167969 166.53125 305.519531 167.253906 304.792969 C 167.980469 304.070312 168.628906 303.28125 169.199219 302.425781 C 169.769531 301.574219 170.25 300.675781 170.640625 299.726562 C 171.035156 298.78125 171.332031 297.804688 171.53125 296.796875 C 171.734375 295.792969 171.835938 294.777344 171.835938 293.75 L 171.835938 271.875 L 181.210938 271.875 C 181.625 271.875 182.023438 271.953125 182.40625 272.113281 C 182.789062 272.269531 183.128906 272.496094 183.421875 272.789062 C 183.714844 273.082031 183.941406 273.421875 184.097656 273.804688 C 184.257812 274.1875 184.335938 274.585938 184.335938 275 Z M 184.335938 325 " fill-opacity="1" fill-rule="nonzero"/><path fill="#34495e" d="M 84.1875 265.640625 C 83.773438 265.597656 83.371094 265.636719 82.972656 265.753906 C 82.574219 265.871094 82.214844 266.0625 81.894531 266.324219 C 81.574219 266.585938 81.3125 266.898438 81.117188 267.265625 C 80.917969 267.628906 80.800781 268.015625 80.757812 268.429688 C 79.570312 279.882812 78.914062 293.289062 78.546875 308.601562 C 76.441406 304 74.050781 299.554688 71.367188 295.265625 C 71.144531 294.925781 70.863281 294.636719 70.53125 294.40625 C 70.195312 294.171875 69.828125 294.011719 69.429688 293.921875 C 69.03125 293.835938 68.632812 293.824219 68.230469 293.890625 C 67.828125 293.960938 67.453125 294.101562 67.105469 294.316406 C 66.757812 294.53125 66.464844 294.804688 66.222656 295.132812 C 65.984375 295.460938 65.816406 295.824219 65.714844 296.222656 C 65.617188 296.617188 65.597656 297.015625 65.65625 297.421875 C 65.714844 297.824219 65.847656 298.203125 66.054688 298.554688 C 71.546875 307.398438 78.203125 320.242188 78.203125 331.25 L 78.203125 331.257812 C 78.085938 344.671875 78.085938 359.257812 78.085938 375 L 84.335938 375 C 84.335938 330.046875 84.335938 294.539062 86.976562 269.070312 C 87.019531 268.65625 86.980469 268.253906 86.863281 267.855469 C 86.746094 267.457031 86.554688 267.097656 86.292969 266.777344 C 86.03125 266.457031 85.71875 266.195312 85.351562 266 C 84.988281 265.800781 84.601562 265.683594 84.1875 265.640625 Z M 84.1875 265.640625 " fill-opacity="1" fill-rule="nonzero"/><path fill="#34495e" d="M 274.355469 278.007812 C 274.753906 278.121094 275.15625 278.152344 275.570312 278.101562 C 275.980469 278.054688 276.367188 277.925781 276.730469 277.722656 C 277.089844 277.519531 277.398438 277.257812 277.65625 276.929688 C 277.910156 276.605469 278.09375 276.242188 278.207031 275.84375 C 279.925781 269.527344 282.363281 263.503906 285.523438 257.773438 C 285.726562 257.410156 285.851562 257.023438 285.898438 256.613281 C 285.949219 256.203125 285.914062 255.796875 285.800781 255.398438 C 285.6875 255 285.503906 254.636719 285.246094 254.3125 C 284.988281 253.988281 284.679688 253.722656 284.320312 253.519531 C 283.957031 253.320312 283.570312 253.195312 283.160156 253.144531 C 282.746094 253.097656 282.339844 253.128906 281.941406 253.242188 C 281.542969 253.355469 281.183594 253.542969 280.855469 253.796875 C 280.53125 254.054688 280.269531 254.363281 280.066406 254.726562 C 276.664062 260.890625 274.039062 267.363281 272.1875 274.15625 C 272.078125 274.554688 272.046875 274.960938 272.09375 275.371094 C 272.144531 275.785156 272.269531 276.171875 272.472656 276.53125 C 272.675781 276.894531 272.941406 277.203125 273.265625 277.457031 C 273.59375 277.714844 273.953125 277.898438 274.355469 278.007812 Z M 274.355469 278.007812 " fill-opacity="1" fill-rule="nonzero"/><path fill="#34495e" d="M 327.035156 265.523438 C 320.097656 267.96875 313.453125 271.042969 307.101562 274.742188 C 306.742188 274.953125 306.441406 275.222656 306.191406 275.554688 C 305.941406 275.886719 305.765625 276.253906 305.660156 276.652344 C 305.558594 277.054688 305.535156 277.460938 305.59375 277.871094 C 305.652344 278.28125 305.785156 278.664062 305.996094 279.023438 C 306.210938 279.375 306.480469 279.675781 306.8125 279.921875 C 307.144531 280.167969 307.511719 280.34375 307.910156 280.445312 C 308.308594 280.550781 308.714844 280.574219 309.125 280.519531 C 309.53125 280.464844 309.917969 280.332031 310.273438 280.128906 C 316.285156 276.625 322.574219 273.71875 329.136719 271.40625 C 329.53125 271.269531 329.886719 271.0625 330.195312 270.785156 C 330.507812 270.507812 330.753906 270.179688 330.933594 269.804688 C 331.113281 269.429688 331.214844 269.03125 331.238281 268.617188 C 331.261719 268.199219 331.199219 267.792969 331.058594 267.402344 C 330.917969 267.007812 330.707031 266.65625 330.429688 266.347656 C 330.148438 266.039062 329.816406 265.796875 329.441406 265.621094 C 329.0625 265.445312 328.664062 265.347656 328.246094 265.332031 C 327.828125 265.3125 327.425781 265.375 327.035156 265.519531 Z M 327.035156 265.523438 " fill-opacity="1" fill-rule="nonzero"/><path fill="#34495e" d="M 298.074219 280.777344 C 293.308594 284.367188 288.976562 288.429688 285.085938 292.957031 C 284.816406 293.269531 284.617188 293.625 284.488281 294.019531 C 284.359375 294.414062 284.3125 294.816406 284.34375 295.230469 C 284.378906 295.644531 284.488281 296.035156 284.675781 296.402344 C 284.863281 296.773438 285.113281 297.09375 285.429688 297.363281 C 285.746094 297.625 286.101562 297.820312 286.496094 297.945312 C 286.886719 298.074219 287.292969 298.121094 287.703125 298.085938 C 288.113281 298.054688 288.503906 297.945312 288.875 297.761719 C 289.242188 297.578125 289.5625 297.328125 289.835938 297.019531 C 293.433594 292.832031 297.4375 289.082031 301.847656 285.761719 C 302.175781 285.511719 302.449219 285.207031 302.65625 284.847656 C 302.867188 284.492188 303 284.105469 303.058594 283.695312 C 303.113281 283.285156 303.089844 282.878906 302.984375 282.480469 C 302.878906 282.078125 302.703125 281.710938 302.453125 281.382812 C 302.203125 281.050781 301.898438 280.78125 301.542969 280.570312 C 301.183594 280.363281 300.800781 280.230469 300.390625 280.171875 C 299.980469 280.117188 299.574219 280.140625 299.171875 280.242188 C 298.769531 280.347656 298.40625 280.527344 298.074219 280.777344 Z M 298.074219 280.777344 " fill-opacity="1" fill-rule="nonzero"/><path fill="#34495e" d="M 282.78125 300.945312 C 282.429688 300.726562 282.050781 300.578125 281.644531 300.507812 C 281.238281 300.4375 280.832031 300.449219 280.429688 300.539062 C 280.023438 300.632812 279.65625 300.796875 279.316406 301.035156 C 278.976562 301.269531 278.699219 301.566406 278.476562 301.914062 C 276.328125 305.320312 274.457031 308.875 272.859375 312.570312 C 273.285156 304.339844 274.164062 296.160156 275.5 288.03125 C 275.570312 287.621094 275.558594 287.214844 275.46875 286.8125 C 275.378906 286.40625 275.210938 286.035156 274.972656 285.695312 C 274.734375 285.359375 274.4375 285.078125 274.089844 284.855469 C 273.738281 284.632812 273.359375 284.488281 272.949219 284.417969 C 272.539062 284.347656 272.132812 284.359375 271.730469 284.449219 C 271.324219 284.539062 270.953125 284.707031 270.613281 284.945312 C 270.277344 285.183594 269.996094 285.480469 269.773438 285.828125 C 269.550781 286.179688 269.40625 286.558594 269.335938 286.96875 C 265.585938 308.726562 265.585938 336.523438 265.585938 375 L 271.835938 375 C 271.835938 364.648438 271.835938 355.085938 271.90625 346.210938 C 272.460938 330.617188 276.4375 316.851562 283.757812 305.257812 C 283.980469 304.90625 284.125 304.527344 284.195312 304.117188 C 284.265625 303.710938 284.253906 303.304688 284.164062 302.898438 C 284.070312 302.496094 283.90625 302.125 283.667969 301.785156 C 283.425781 301.445312 283.132812 301.167969 282.78125 300.945312 Z M 282.78125 300.945312 " fill-opacity="1" fill-rule="nonzero"/><path fill="#34495e" d="M 52.203125 270.589844 C 51.917969 270.285156 51.582031 270.046875 51.199219 269.875 C 50.816406 269.703125 50.417969 269.613281 50 269.605469 C 49.582031 269.59375 49.175781 269.667969 48.785156 269.820312 C 48.398438 269.972656 48.050781 270.195312 47.75 270.484375 C 47.449219 270.777344 47.21875 271.117188 47.054688 271.5 C 46.890625 271.886719 46.804688 272.289062 46.800781 272.707031 C 46.796875 273.125 46.875 273.527344 47.035156 273.914062 C 47.195312 274.300781 47.421875 274.644531 47.71875 274.941406 C 52.074219 279.472656 56.105469 284.277344 59.816406 289.351562 C 60.0625 289.6875 60.359375 289.96875 60.714844 290.1875 C 61.070312 290.40625 61.453125 290.546875 61.867188 290.613281 C 62.277344 290.675781 62.6875 290.660156 63.09375 290.5625 C 63.496094 290.464844 63.867188 290.289062 64.203125 290.042969 C 64.539062 289.796875 64.816406 289.496094 65.03125 289.136719 C 65.246094 288.78125 65.382812 288.394531 65.445312 287.984375 C 65.507812 287.570312 65.484375 287.160156 65.382812 286.757812 C 65.28125 286.351562 65.105469 285.984375 64.855469 285.648438 C 60.972656 280.347656 56.757812 275.328125 52.203125 270.589844 Z M 52.203125 270.589844 " fill-opacity="1" fill-rule="nonzero"/><path fill="#34495e" d="M 238.664062 198.828125 C 226.609375 200.867188 214.429688 208.664062 215.601562 219.101562 C 217.148438 231.96875 235.960938 230.53125 241.296875 229.15625 C 255.429688 226.304688 264.085938 217.835938 262.09375 208.976562 C 260.21875 200.71875 251.023438 196.742188 238.664062 198.828125 Z M 237.664062 219.410156 C 237.621094 219.824219 237.503906 220.210938 237.308594 220.578125 C 237.109375 220.941406 236.851562 221.253906 236.53125 221.519531 C 236.210938 221.78125 235.851562 221.96875 235.457031 222.089844 C 235.058594 222.210938 234.65625 222.25 234.242188 222.207031 C 233.832031 222.164062 233.441406 222.046875 233.078125 221.851562 C 232.710938 221.65625 232.398438 221.398438 232.136719 221.074219 C 231.875 220.753906 231.683594 220.398438 231.5625 220 C 231.441406 219.601562 231.402344 219.199219 231.445312 218.785156 C 231.648438 216.761719 231.523438 215.941406 230.332031 214.40625 C 230.082031 214.078125 229.902344 213.714844 229.792969 213.316406 C 229.6875 212.917969 229.660156 212.515625 229.710938 212.105469 C 229.761719 211.695312 229.890625 211.3125 230.097656 210.953125 C 230.300781 210.59375 230.566406 210.289062 230.890625 210.035156 C 231.21875 209.78125 231.578125 209.601562 231.976562 209.492188 C 232.375 209.378906 232.777344 209.351562 233.1875 209.398438 C 233.597656 209.449219 233.984375 209.578125 234.34375 209.777344 C 234.703125 209.980469 235.007812 210.242188 235.265625 210.566406 C 237.6875 213.683594 237.980469 216.261719 237.664062 219.410156 Z M 237.664062 219.410156 " fill-opacity="1" fill-rule="nonzero"/><path fill="#34495e" d="M 373.179688 323.757812 C 371.6875 307.296875 369.109375 293.53125 365.28125 281.671875 C 357.070312 256.203125 342.226562 237.03125 318.710938 221.578125 L 318.710938 118.75 C 318.710938 85.867188 308.679688 57.65625 289.703125 37.15625 C 278.820312 25.40625 265.046875 16.296875 248.773438 10.078125 C 231.257812 3.390625 210.625 0 187.460938 0 C 166.6875 0 147.8125 5.773438 131.359375 17.171875 C 124.710938 21.828125 118.679688 27.179688 113.265625 33.226562 C 107.851562 39.273438 103.195312 45.855469 99.296875 52.976562 C 93.742188 55.015625 88.039062 57.359375 82.320312 59.953125 C 81.285156 60.421875 80.335938 61.015625 79.460938 61.742188 C 78.589844 62.46875 77.832031 63.300781 77.1875 64.230469 C 76.542969 65.164062 76.03125 66.164062 75.660156 67.238281 C 75.285156 68.308594 75.0625 69.410156 74.988281 70.542969 C 74.914062 71.671875 74.992188 72.792969 75.222656 73.90625 C 75.453125 75.015625 75.828125 76.074219 76.347656 77.082031 C 76.867188 78.09375 77.511719 79.011719 78.28125 79.847656 C 79.050781 80.679688 79.917969 81.394531 80.882812 81.992188 C 75.585938 95.40625 72.453125 112.8125 72.15625 131.210938 C 71.859375 149.640625 74.367188 166.296875 79.125 178.1875 C 78.953125 178.335938 78.796875 178.484375 78.632812 178.640625 C 78.625 178.65625 78.617188 178.664062 78.601562 178.671875 C 77.730469 179.546875 77.003906 180.53125 76.425781 181.621094 C 75.84375 182.710938 75.4375 183.863281 75.195312 185.074219 C 74.957031 186.285156 74.898438 187.507812 75.023438 188.734375 C 75.144531 189.964844 75.445312 191.148438 75.917969 192.289062 C 76.390625 193.429688 77.019531 194.480469 77.804688 195.433594 C 78.589844 196.386719 79.496094 197.207031 80.523438 197.894531 C 81.550781 198.578125 82.652344 199.101562 83.835938 199.460938 C 85.015625 199.820312 86.226562 200 87.460938 200 L 87.460938 226.835938 C 79.195312 229.914062 71.382812 233.886719 64.023438 238.753906 C 56.664062 243.617188 49.949219 249.25 43.875 255.648438 C 32.585938 267.5 23.234375 282.132812 16.078125 299.140625 C 3.445312 329.140625 0.601562 359.03125 0.0703125 375 L 9.445312 375 C 9.976562 359.65625 12.734375 331.242188 24.71875 302.773438 C 38.25 270.632812 59.28125 248.546875 87.296875 236.984375 C 85.019531 243.0625 83.398438 249.3125 82.4375 255.734375 C 82.363281 256.144531 82.375 256.554688 82.464844 256.960938 C 82.554688 257.367188 82.722656 257.742188 82.960938 258.082031 C 83.203125 258.421875 83.5 258.703125 83.851562 258.925781 C 84.207031 259.148438 84.589844 259.292969 85 259.359375 C 85.410156 259.429688 85.820312 259.417969 86.226562 259.320312 C 86.632812 259.226562 87.003906 259.058594 87.339844 258.8125 C 87.679688 258.570312 87.957031 258.269531 88.175781 257.914062 C 88.394531 257.5625 88.535156 257.175781 88.601562 256.765625 C 90.078125 247.914062 92.007812 241.148438 94.460938 236.210938 C 101.539062 242 116.046875 246.875 187.460938 246.875 C 244.1875 246.875 274.539062 243.3125 291.578125 238.945312 C 289.859375 240.804688 288.257812 242.691406 286.773438 244.609375 C 286.507812 244.933594 286.3125 245.300781 286.191406 245.707031 C 286.074219 246.109375 286.039062 246.523438 286.085938 246.941406 C 286.132812 247.359375 286.257812 247.753906 286.464844 248.121094 C 286.671875 248.488281 286.941406 248.800781 287.273438 249.058594 C 287.609375 249.320312 287.980469 249.503906 288.386719 249.609375 C 288.792969 249.71875 289.207031 249.742188 289.625 249.683594 C 290.042969 249.625 290.433594 249.488281 290.792969 249.273438 C 291.15625 249.054688 291.460938 248.777344 291.710938 248.4375 C 296.117188 242.867188 301.085938 237.859375 306.617188 233.40625 C 308.882812 232.183594 310.96875 230.699219 312.867188 228.960938 C 326.84375 238.015625 337.335938 248.15625 345.132812 260.335938 C 342.21875 260.992188 339.359375 261.703125 336.617188 262.476562 C 336.207031 262.578125 335.835938 262.757812 335.5 263.011719 C 335.164062 263.265625 334.890625 263.574219 334.679688 263.941406 C 334.464844 264.304688 334.335938 264.695312 334.28125 265.113281 C 334.230469 265.53125 334.257812 265.945312 334.371094 266.351562 C 334.488281 266.757812 334.675781 267.125 334.9375 267.453125 C 335.199219 267.785156 335.515625 268.050781 335.886719 268.25 C 336.257812 268.453125 336.652344 268.574219 337.070312 268.617188 C 337.492188 268.65625 337.902344 268.617188 338.304688 268.492188 C 341.5625 267.578125 344.984375 266.75 348.484375 266 C 351.691406 271.9375 354.316406 278.121094 356.359375 284.554688 C 364.015625 308.28125 365.585938 337.875 365.585938 375 L 374.960938 375 C 374.960938 353.210938 374.414062 337.40625 373.179688 323.757812 Z M 86.1875 68.492188 C 115.960938 54.984375 144.671875 48.757812 171.492188 50.007812 C 208.5625 51.734375 242.625 67.5 272.851562 96.875 L 271.835938 96.875 C 269.605469 96.890625 267.527344 97.460938 265.601562 98.59375 C 215.554688 51.773438 156.0625 43.5625 88.726562 74.195312 C 88.34375 74.386719 87.941406 74.496094 87.515625 74.523438 C 87.085938 74.550781 86.671875 74.492188 86.269531 74.347656 C 85.867188 74.203125 85.507812 73.988281 85.195312 73.695312 C 84.882812 73.40625 84.640625 73.066406 84.464844 72.675781 C 84.292969 72.285156 84.203125 71.875 84.195312 71.449219 C 84.1875 71.023438 84.269531 70.609375 84.429688 70.214844 C 84.59375 69.820312 84.828125 69.472656 85.132812 69.171875 C 85.4375 68.875 85.789062 68.648438 86.1875 68.492188 Z M 272.960938 153.125 L 271.835938 153.125 C 264.46875 153.125 259.335938 139.953125 259.335938 128.125 C 259.335938 116.296875 264.46875 103.125 271.835938 103.125 L 272.953125 103.125 C 268.453125 108.78125 265.585938 117.789062 265.585938 128.125 C 265.585938 138.460938 268.453125 147.46875 272.960938 153.125 Z M 271.109375 159.34375 C 255.445312 177.484375 226.109375 190.625 199.960938 190.625 L 165.585938 190.625 L 165.585938 184.375 L 199.960938 184.375 C 222.9375 184.375 249.585938 173.03125 264.679688 157.09375 C 266.617188 158.429688 268.761719 159.179688 271.109375 159.34375 Z M 96.675781 132.234375 C 96.554688 132.609375 96.367188 132.949219 96.117188 133.25 C 95.867188 133.554688 95.570312 133.800781 95.226562 133.992188 C 94.882812 134.183594 94.511719 134.300781 94.121094 134.351562 C 93.730469 134.402344 93.347656 134.378906 92.964844 134.28125 C 92.542969 134.171875 92.160156 133.988281 91.816406 133.722656 C 91.46875 133.457031 91.191406 133.132812 90.984375 132.75 C 90.773438 132.371094 90.648438 131.960938 90.605469 131.527344 C 90.5625 131.09375 90.609375 130.671875 90.746094 130.257812 C 97.375 110.371094 135.335938 72.410156 155.222656 65.78125 C 155.617188 65.648438 156.019531 65.597656 156.433594 65.628906 C 156.847656 65.65625 157.238281 65.765625 157.609375 65.949219 C 157.980469 66.136719 158.300781 66.386719 158.570312 66.699219 C 158.84375 67.011719 159.042969 67.363281 159.175781 67.757812 C 159.308594 68.152344 159.359375 68.554688 159.328125 68.96875 C 159.300781 69.382812 159.191406 69.773438 159.007812 70.144531 C 158.820312 70.515625 158.570312 70.835938 158.257812 71.105469 C 157.945312 71.378906 157.59375 71.578125 157.199219 71.710938 C 139.382812 77.65625 102.617188 114.421875 96.675781 132.238281 Z M 146.835938 184.375 L 146.835938 190.625 L 140.585938 190.625 L 140.585938 184.375 Z M 134.335938 184.375 L 134.335938 190.625 L 128.085938 190.625 L 128.085938 184.375 Z M 91.210938 104.753906 C 100.230469 92.941406 110.40625 82.226562 121.742188 72.613281 C 122.058594 72.347656 122.414062 72.148438 122.808594 72.023438 C 123.203125 71.898438 123.605469 71.851562 124.019531 71.886719 C 124.433594 71.917969 124.824219 72.03125 125.191406 72.222656 C 125.558594 72.410156 125.878906 72.664062 126.144531 72.980469 C 126.414062 73.296875 126.609375 73.652344 126.738281 74.046875 C 126.863281 74.441406 126.910156 74.84375 126.875 75.257812 C 126.839844 75.671875 126.730469 76.0625 126.539062 76.429688 C 126.351562 76.796875 126.097656 77.117188 125.78125 77.382812 C 114.800781 86.6875 104.945312 97.058594 96.210938 108.496094 C 95.960938 108.828125 95.660156 109.101562 95.304688 109.3125 C 94.949219 109.523438 94.5625 109.660156 94.152344 109.71875 C 93.746094 109.777344 93.339844 109.753906 92.9375 109.652344 C 92.535156 109.550781 92.167969 109.375 91.835938 109.125 C 91.503906 108.878906 91.234375 108.574219 91.023438 108.21875 C 90.8125 107.863281 90.675781 107.480469 90.617188 107.070312 C 90.558594 106.660156 90.578125 106.253906 90.679688 105.851562 C 90.78125 105.453125 90.957031 105.085938 91.207031 104.753906 Z M 153.085938 184.375 L 159.335938 184.375 L 159.335938 190.625 L 153.085938 190.625 Z M 87.460938 190.625 C 87.046875 190.625 86.648438 190.546875 86.265625 190.386719 C 85.882812 190.230469 85.542969 190.003906 85.25 189.710938 C 84.957031 189.417969 84.730469 189.078125 84.574219 188.695312 C 84.414062 188.3125 84.335938 187.914062 84.335938 187.5 C 84.335938 187.085938 84.414062 186.6875 84.574219 186.304688 C 84.730469 185.921875 84.957031 185.582031 85.25 185.289062 C 85.542969 184.996094 85.882812 184.769531 86.265625 184.613281 C 86.648438 184.453125 87.046875 184.375 87.460938 184.375 L 121.835938 184.375 L 121.835938 190.625 Z M 309.335938 223.695312 C 303.046875 229.742188 287.234375 240.625 187.460938 240.625 C 116.304688 240.625 102.71875 235.890625 96.835938 229.9375 L 96.835938 229.234375 C 106.992188 231.117188 120.273438 230.210938 122.039062 219.101562 C 123.546875 208.59375 110.359375 200.195312 96.835938 198.539062 L 96.835938 196.875 L 199.960938 196.875 C 229.648438 196.875 263.28125 180.84375 279.078125 159.375 L 284.335938 159.375 C 294.851562 159.375 303.085938 145.648438 303.085938 128.125 C 303.085938 110.601562 294.851562 96.875 284.335938 96.875 L 281.6875 96.875 C 249.25 63.523438 212.28125 45.648438 171.78125 43.765625 C 152.179688 42.859375 131.65625 45.773438 110.515625 52.4375 C 113.910156 47.011719 117.8125 41.980469 122.222656 37.339844 C 126.632812 32.699219 131.457031 28.542969 136.703125 24.875 C 151.554688 14.585938 168.632812 9.375 187.460938 9.375 C 229.757812 9.375 261.84375 20.867188 282.820312 43.53125 C 304.734375 67.195312 309.335938 97.5 309.335938 118.75 Z M 106.199219 218.785156 C 106.242188 219.199219 106.203125 219.605469 106.082031 220 C 105.964844 220.398438 105.773438 220.757812 105.511719 221.078125 C 105.25 221.398438 104.933594 221.65625 104.570312 221.851562 C 104.203125 222.046875 103.816406 222.167969 103.402344 222.207031 C 103.296875 222.21875 103.191406 222.222656 103.089844 222.222656 C 102.703125 222.222656 102.328125 222.152344 101.96875 222.015625 C 101.609375 221.875 101.285156 221.675781 100.996094 221.414062 C 100.710938 221.15625 100.480469 220.851562 100.304688 220.507812 C 100.128906 220.160156 100.023438 219.796875 99.984375 219.410156 C 99.671875 216.261719 99.960938 213.683594 102.382812 210.566406 C 102.640625 210.242188 102.945312 209.976562 103.304688 209.769531 C 103.667969 209.566406 104.050781 209.4375 104.464844 209.386719 C 104.875 209.335938 105.28125 209.367188 105.679688 209.476562 C 106.078125 209.585938 106.441406 209.769531 106.769531 210.023438 C 107.09375 210.277344 107.359375 210.582031 107.566406 210.945312 C 107.769531 211.304688 107.898438 211.6875 107.949219 212.101562 C 108 212.511719 107.972656 212.917969 107.863281 213.316406 C 107.753906 213.714844 107.570312 214.078125 107.316406 214.40625 C 106.117188 215.941406 105.996094 216.761719 106.199219 218.785156 Z M 106.199219 218.785156 " fill-opacity="1" fill-rule="nonzero"/></svg>